# xmcd CD database file
#
# Track frame offsets:
#	150
#	26475
#	42892
#	52399
#	73934
#	101869
#	118608
#
# Disc length: 1981 seconds
#
# Revision: 0
# Processed by: cddbd v1.5.2PL0 Copyright (c) Steve Scherf et al.
# Submitted via: CDex 1.70beta2
#
DISCID=6707bb07
DTITLE=Getz Stan, Byrd Charlie - Jazz Samba
DYEAR=1963
DGENRE=Jazz
TTITLE0=Desafinado
TTITLE1=Samba Dees Days
TTITLE2=O Pato
TTITLE3=Samba Triste
TTITLE4=Samba De una Nota So 
TTITLE5=E Luxo So
TTITLE6=Baia
EXTD=YEAR: 1963
EXTT0=
EXTT1=
EXTT2=
EXTT3=
EXTT4=
EXTT5=
EXTT6=
PLAYORDER=
